# xmcd
# 
# Track frame offsets:
#     150
#     23425
#     51775
#     72667
#     98385
#     125950
#     148472
#     168347
#     194275
#     217807
#     250535
#     274622
#     303860
# 
# Disc length: 4403
# 
# Revision: 7
# Processed by: cddbd v1.5.2PL0 Copyright (c) Steve Scherf et al.
# Submitted via: BonkEnc v1.0.5
# 
DISCID=b411310d
DTITLE=Sugar Soul - Best
DYEAR=2003
DGENRE=Jazz
TTITLE0=今すぐ欲しい
TTITLE1=Sauce
TTITLE2=悲しみの花に
TTITLE3=青い月
TTITLE4=ナミビア
TTITLE5=Ho-Oh ～女神のうた～
TTITLE6=Gin and Lime
TTITLE7=Garden
TTITLE8=Siva 1999
TTITLE9=respectyourself
TTITLE10=いいよ
TTITLE11=SOULMATE
TTITLE12=いとしさの中で
EXTD=YEAR: 2003
EXTT0=
EXTT1=
EXTT2=
EXTT3=
EXTT4=
EXTT5=
EXTT6=
EXTT7=
EXTT8=
EXTT9=
EXTT10=
EXTT11=
EXTT12=
PLAYORDER=
